<?xml version="1.0" encoding="UTF-8"?>
<svg id="Layer_1" xmlns="http://www.w3.org/2000/svg" version="1.1" viewBox="0 0 2146.8 453.5">
  <!-- Generator: Adobe Illustrator 30.4.0, SVG Export Plug-In . SVG Version: 2.1.4 Build 226)  -->
  <defs>
    <style>
      .st0 {
        fill: none;
        stroke: #00007a;
      }

      .st1 {
        letter-spacing: 1.3em;
      }

      .st2 {
        font-family: MyriadPro-Regular, 'Myriad Pro';
        font-size: 9px;
      }
    </style>
  </defs>
  <g>
    <polyline class="st0" points="51.2 43.8 33.6 91.7 78.4 92.8 32.9 93.8 16.3 132.8 49.9 40.9 103.5 41.1 53.3 43.2"/>
    <text class="st2" transform="translate(45.9 14)"><tspan x="0" y="0">path:1,count:23</tspan></text>
  </g>
  <g>
    <text class="st2" transform="translate(133.9 14)"><tspan x="0" y="0">path:2,count:25</tspan></text>
    <polyline class="st0" points="136.3 40.2 115.7 103.6 121.9 116.2 132.9 118.5 145 113.6 158.2 102.8 189.8 35.6 165.1 107.7 152 119.8 137.8 126 126.2 126.2 110.5 119.8 106.2 106.9 131.9 37.4"/>
  </g>
  <g>
    <text class="st2" transform="translate(235.9 14)"><tspan x="0" y="0">path:3,count:25</tspan></text>
    <polyline class="st0" points="276.3 54.9 276.6 41.3 260.6 34.8 239.2 44.1 219.7 72.9 211.7 101 212.5 114.9 224.6 122.4 243.9 120 268.6 101.5 246.7 126.5 229.5 130.6 213.8 125.4 202.9 110.5 206.5 76.3 224.3 45.9 248.8 29.2 269.9 27.9 284.8 36.9 286.3 54.7"/>
  </g>
  <g>
    <polyline class="st0" points="332.7 31.8 318 77.8 333.5 77 387.3 25.8 341.2 83.9 351.8 130.9 332.5 87.2 314.7 87.4 295.8 129.3 330.2 31.8"/>
    <text class="st2" transform="translate(335.2 14)"><tspan x="0" y="0">path:4,count:27</tspan></text>
  </g>
  <g>
    <polyline class="st0" points="469 30.3 471.1 82.8 526.3 24.7 471.1 98 456.2 130.3 461.4 94.6 457.4 23.1"/>
    <text class="st2" transform="translate(464.5 14)"><tspan x="0" y="0">path:5,count:21</tspan></text>
  </g>
  <g>
    <polyline class="st0" points="611.3 36.3 560.7 33.2 544.8 83 588.9 83 544.8 85.3 530.2 128.9 576.9 131.6 524.4 133.9 558.7 29.3 612 32.8"/>
    <text class="st2" transform="translate(557.5 14)"><tspan x="0" y="0">path:6,count:26</tspan></text>
  </g>
  <g>
    <polyline class="st0" points="676.5 42.4 669.9 104.6 646 104.6 669.6 107.3 667.9 137.1 680.8 38.6 657.2 37.4 602 138.2 623.2 105.4 639.8 104.2 624.4 103.1 659.9 42.4"/>
    <text class="st2" transform="translate(642.2 14)"><tspan x="0" y="0">path:7,count:30</tspan></text>
  </g>
  <g>
    <polyline class="st0" points="745.2 24.3 729 77.2 779.2 77.6 803.2 23.9 766.5 130.1 778.4 82.6 727.1 81 708.9 129.7 742.9 23.9"/>
    <text class="st2" transform="translate(744 14)"><tspan x="0" y="0">path:8,count:29</tspan><tspan class="st1" x="58.8" y="0">	</tspan></text>
  </g>
  <g>
    <polyline class="st0" points="848.1 28.9 822.3 98.8 843.1 28.5"/>
    <text class="st2" transform="translate(819.1 14)"><tspan x="0" y="0">path:9,count:7</tspan></text>
  </g>
  <g>
    <text class="st2" transform="translate(879.8 14)"><tspan x="0" y="0">path:10,count:6</tspan></text>
    <polyline class="st0" points="821.1 118.1 820.2 132.4 803.6 140.4 799.4 120.3 812.7 113.5 803.1 124.8 805.7 135.9 818.5 131.1 819 118"/>
  </g>
</svg>