<?xml version="1.0" encoding="UTF-8"?>
<svg xmlns="http://www.w3.org/2000/svg" viewBox="0 0 2146.8 453.5">
  <g data-lightplayer-role="outline">
    <path d="M683.9,132.7 L753.5,132.7 L744.8,156.1 L700.6,156.1" />
  </g>
  <g>
    <polyline points="693.8 146.6 676.2 194.4 721.0 195.6 675.5 196.6 658.8 235.6 692.4 143.7 746.1 143.9 695.9 146.0" />
    <text><tspan>path:1,count:10</tspan></text>
  </g>
  <g>
    <path d="M777.4,143.3 L766.2,167.0 L758.5,193.4 L755.1,214.1 L762.2,224.0 L779.4,224.8 L797.8,211.2 L815.5,184.3 L831.4,139.7" />
    <text>path:2,count:12</text>
  </g>
  <g>
    <polyline points="975.3 134.6 960.6 180.5 976.0 179.8 1029.9 128.6 983.8 186.7 994.4 233.6 975.1 190.0 957.3 190.2 938.4 232.1 972.8 134.6" />
    <text>path:3,count:14</text>
  </g>
  <g>
    <path d="M1111.6,133.0 L1113.7,185.6 L1168.9,127.4 L1113.7,200.8 L1098.8,233.1 L1104.0,197.3 L1100.0,125.9" />
    <text>path:4,count:8</text>
  </g>
</svg>
