<?xml version="1.0" encoding="UTF-8"?>
<svg id="fyeah-button-ring" xmlns="http://www.w3.org/2000/svg" version="1.1" viewBox="0 0 100 100">
  <g>
    <polyline fill="none" stroke="#00007a" points="50.0 10.0 57.8 10.8 65.3 13.0 72.2 16.7 78.3 21.7 83.3 27.8 87.0 34.7 89.2 42.2 90.0 50.0 89.2 57.8 87.0 65.3 83.3 72.2 78.3 78.3 72.2 83.3 65.3 87.0 57.8 89.2 50.0 90.0 42.2 89.2 34.7 87.0 27.8 83.3 21.7 78.3 16.7 72.2 13.0 65.3 10.8 57.8 10.0 50.0 10.8 42.2 13.0 34.7 16.7 27.8 21.7 21.7 27.8 16.7 34.7 13.0 42.2 10.8"/>
    <text>path:1,count:32</text>
  </g>
</svg>
